<svg width="36" height="32" viewBox="0 0 36 32" fill="none" xmlns="http://www.w3.org/2000/svg">
<path d="M19.171 0.000443771C18.755 0.00544396 18.3467 0.0479456 17.9384 0.120448C15.9468 0.470462 14.2904 1.15549 13.3158 2.40053C12.3413 3.64558 11.9599 5.36315 11.9599 7.86074V8.96078C9.93756 9.4458 6.9984 10.1608 6.9984 10.1608C6.97914 10.1658 6.95603 10.1733 6.93677 10.1808C6.21257 10.4008 5.36126 10.5958 4.53306 10.9609C4.50609 10.9734 4.46757 10.9684 4.44061 10.9809C4.38668 10.9984 4.3366 11.0184 4.28652 11.0409C4.2326 11.0634 4.17867 11.0909 4.13244 11.1209C4.07466 11.1509 4.00532 11.1459 3.94754 11.1809C2.9537 11.7809 2.32581 12.7684 2.0369 14.481L0.00298871 28.2215C-0.0201234 28.4165 0.0915873 28.609 0.311157 28.7415C3.95524 30.9216 10.1417 31.9817 10.1417 31.9817C10.3805 32.0192 10.6348 31.9992 10.8505 31.9217L34.7027 23.9614C35.034 23.8564 35.2497 23.6413 35.2574 23.4013C35.2574 20.5737 34.5871 17.8911 34.5794 17.8611C34.9069 17.6736 35.6888 17.2611 35.6888 17.2611C35.9084 17.1286 36.0201 16.9361 35.997 16.7411C35.997 16.7411 35.1727 11.5234 33.5933 8.66077C32.7728 7.17572 31.3552 6.27068 29.8028 5.86067C29.0247 5.65566 28.2543 5.56066 27.4916 5.56066C26.7289 5.56066 25.9893 5.64816 25.3344 5.78066C25.215 5.80566 24.6372 5.94817 24.4099 6.00067V4.90063C24.4099 3.11806 23.7396 1.78301 22.5301 0.940479C21.9253 0.520463 21.2011 0.237953 20.4037 0.100448C20.0069 0.032945 19.5871 -0.00455642 19.171 0.000443771ZM19.2019 1.28049C19.9145 1.26299 20.527 1.433 21.0817 1.82051C21.8213 2.33553 22.4376 3.32807 22.4376 4.90063V6.46069C22.1834 6.52069 22.168 6.51319 21.8829 6.58069C20.1032 7.00321 17.8613 7.55073 15.6579 8.08075C14.7796 8.29076 14.7681 8.30076 13.9322 8.50077V7.86074C13.9322 5.45315 14.3444 3.91059 15.0724 2.98056C15.8005 2.05052 16.7943 1.65301 18.4623 1.3605C18.7242 1.31549 18.963 1.28549 19.2019 1.28049ZM27.4608 6.8407C28.0001 6.8407 28.5471 6.90571 29.0632 7.04071C30.0917 7.31322 31.074 7.88574 31.7443 9.10079C33.0579 11.4784 33.8707 16.0236 33.9631 16.5411C33.4315 16.8536 29.9261 18.8912 26.1665 20.0012C18.9399 22.1338 14.6333 22.7813 13.3467 22.9613C13.2465 21.8888 12.8382 17.6286 11.7134 14.501C11.0547 12.6734 9.44449 11.7359 7.95372 11.3009C8.05773 11.2759 10.4383 10.7084 11.7134 10.4008C12.01 10.6383 12.5878 10.8009 13.285 10.8009C14.2712 10.8009 15.0724 10.4633 15.0724 10.0608C15.0724 9.90832 14.9877 9.77832 14.7951 9.66081C15.5347 9.4833 15.5462 9.4708 16.3359 9.2808C18.1695 8.84078 19.9145 8.40326 21.5131 8.02075C21.7828 8.28326 22.4376 8.46076 23.1772 8.46076C24.1634 8.46076 24.9646 8.12325 24.9646 7.72074C24.9646 7.56073 24.8375 7.42073 24.6256 7.30072C25.007 7.21322 25.8352 7.01821 25.9199 7.00071C26.3937 6.90321 26.9215 6.8407 27.4608 6.8407ZM5.79655 12.2009C6.09701 12.2109 6.48993 12.2609 6.96759 12.3809C7.76112 12.5809 8.62784 12.9459 9.24803 13.781L9.27885 30.4216C7.56466 30.0291 4.25571 29.1791 2.0369 27.9615L4.00917 14.621V14.601C4.25571 13.1534 4.72181 12.5559 5.21103 12.2209C5.28422 12.2159 5.49608 12.1909 5.79655 12.2009ZM32.7921 18.8212C32.9616 19.6087 33.2081 21.0987 33.2543 23.0213L11.2511 30.3616L11.2203 21.8013C11.3628 22.9213 11.4668 23.8013 11.4668 23.8013C11.49 23.9839 11.6286 24.1514 11.852 24.2614C12.0755 24.3714 12.3605 24.4164 12.6379 24.3814C12.6379 24.3814 16.3629 23.9289 22.2219 22.4613C22.6726 23.1013 23.8205 23.3638 24.9954 23.0413C26.1742 22.7188 26.9754 21.9313 26.9061 21.1812C26.9369 21.1712 26.9677 21.1712 26.9985 21.1612C29.1595 20.5237 31.205 19.6062 32.7921 18.8212Z" fill="black"/>
</svg>
