<svg id="visual" viewBox="0 0 900 600" width="900" height="600" xmlns="http://www.w3.org/2000/svg" xmlns:xlink="http://www.w3.org/1999/xlink" version="1.1"><rect x="0" y="0" width="900" height="600" fill="#909590"></rect><path d="M0 57L10 66.2C20 75.3 40 93.7 60 109.7C80 125.7 100 139.3 120 142.8C140 146.3 160 139.7 180 146.5C200 153.3 220 173.7 240 178.2C260 182.7 280 171.3 300 146.8C320 122.3 340 84.7 360 76.5C380 68.3 400 89.7 420 114C440 138.3 460 165.7 480 174.3C500 183 520 173 540 171.7C560 170.3 580 177.7 600 175.5C620 173.3 640 161.7 660 145.8C680 130 700 110 720 102.8C740 95.7 760 101.3 780 112.8C800 124.3 820 141.7 840 145C860 148.3 880 137.7 890 132.3L900 127L900 0L890 0C880 0 860 0 840 0C820 0 800 0 780 0C760 0 740 0 720 0C700 0 680 0 660 0C640 0 620 0 600 0C580 0 560 0 540 0C520 0 500 0 480 0C460 0 440 0 420 0C400 0 380 0 360 0C340 0 320 0 300 0C280 0 260 0 240 0C220 0 200 0 180 0C160 0 140 0 120 0C100 0 80 0 60 0C40 0 20 0 10 0L0 0Z" fill="#575A5E" stroke-linecap="round" stroke-linejoin="miter"></path></svg>