<svg id="visual" viewBox="0 0 900 600" width="900" height="600" xmlns="http://www.w3.org/2000/svg" xmlns:xlink="http://www.w3.org/1999/xlink" version="1.1"><rect x="0" y="0" width="900" height="600" fill="#909590"></rect><path d="M0 176L21.5 169.3C43 162.7 86 149.3 128.8 139.8C171.7 130.3 214.3 124.7 257.2 132.5C300 140.3 343 161.7 385.8 171.8C428.7 182 471.3 181 514.2 163.8C557 146.7 600 113.3 642.8 110.2C685.7 107 728.3 134 771.2 143.2C814 152.3 857 143.7 878.5 139.3L900 135L900 0L878.5 0C857 0 814 0 771.2 0C728.3 0 685.7 0 642.8 0C600 0 557 0 514.2 0C471.3 0 428.7 0 385.8 0C343 0 300 0 257.2 0C214.3 0 171.7 0 128.8 0C86 0 43 0 21.5 0L0 0Z" fill="#474A48" stroke-linecap="round" stroke-linejoin="miter"></path></svg>