<svg id="visual" viewBox="0 0 900 600" width="900" height="600" xmlns="http://www.w3.org/2000/svg" xmlns:xlink="http://www.w3.org/1999/xlink" version="1.1"><rect x="0" y="0" width="900" height="600" fill="#909590"></rect><path d="M0 422L21.5 428.7C43 435.3 86 448.7 128.8 458.2C171.7 467.7 214.3 473.3 257.2 465.5C300 457.7 343 436.3 385.8 426.2C428.7 416 471.3 417 514.2 434.2C557 451.3 600 484.7 642.8 487.8C685.7 491 728.3 464 771.2 454.8C814 445.7 857 454.3 878.5 458.7L900 463L900 601L878.5 601C857 601 814 601 771.2 601C728.3 601 685.7 601 642.8 601C600 601 557 601 514.2 601C471.3 601 428.7 601 385.8 601C343 601 300 601 257.2 601C214.3 601 171.7 601 128.8 601C86 601 43 601 21.5 601L0 601Z" fill="#2C302E" stroke-linecap="round" stroke-linejoin="miter"></path></svg>