<svg width="120" height="100" viewBox="0 0 120 100" fill="none" xmlns="http://www.w3.org/2000/svg">
<g id="triangles" clip-path="url(#clip0_101_2)">
<g id="light">
<path id="light_1" opacity="0.7" d="M37.3999 47.8201C38.6194 48.608 38.6194 50.392 37.3999 51.1799L11.5854 67.8582C10.2546 68.718 8.50001 67.7627 8.50001 66.1783L8.50001 32.8217C8.50001 31.2373 10.2546 30.282 11.5854 31.1418L37.3999 47.8201Z" fill="#93CEC0"/>
<path id="light_2" opacity="0.7" d="M50.3999 47.8201C51.6194 48.608 51.6194 50.392 50.3999 51.1799L24.5853 67.8582C23.2546 68.718 21.5 67.7627 21.5 66.1783L21.5 32.8217C21.5 31.2373 23.2545 30.282 24.5853 31.1418L50.3999 47.8201Z" fill="#93CEC0"/>
</g>
<g id="dark">
<path id="dark_1" opacity="0.7" d="M37.3999 47.8201C38.6194 48.608 38.6194 50.392 37.3999 51.1799L11.5854 67.8582C10.2546 68.718 8.5 67.7627 8.5 66.1783L8.5 32.8217C8.5 31.2373 10.2546 30.282 11.5853 31.1418L37.3999 47.8201Z" fill="#D9D9D9"/>
</g>
</g>
<defs>
<clipPath id="clip0_101_2">
<rect width="120" height="100" fill="white"/>
</clipPath>
</defs>
</svg>
