<svg id="visual" viewBox="0 0 900 600" width="900" height="600" xmlns="http://www.w3.org/2000/svg" xmlns:xlink="http://www.w3.org/1999/xlink" version="1.1"><rect x="0" y="0" width="900" height="600" fill="#575A5E"></rect><path d="M0 61L21.5 62.8C43 64.7 86 68.3 128.8 87.7C171.7 107 214.3 142 257.2 146.8C300 151.7 343 126.3 385.8 115.5C428.7 104.7 471.3 108.3 514.2 120C557 131.7 600 151.3 642.8 153.8C685.7 156.3 728.3 141.7 771.2 138.3C814 135 857 143 878.5 147L900 151L900 0L878.5 0C857 0 814 0 771.2 0C728.3 0 685.7 0 642.8 0C600 0 557 0 514.2 0C471.3 0 428.7 0 385.8 0C343 0 300 0 257.2 0C214.3 0 171.7 0 128.8 0C86 0 43 0 21.5 0L0 0Z" fill="#909590" stroke-linecap="round" stroke-linejoin="miter"></path></svg>